<svg width="624" height="128" viewBox="0 0 624 128" fill="none" xmlns="http://www.w3.org/2000/svg">
<path d="M70.8984 64C70.8984 83.33 55.2284 99 35.8984 99C16.5685 99 0.898438 83.33 0.898438 64C0.898438 44.67 16.5685 29 35.8984 29C55.2284 29 70.8984 44.67 70.8984 64Z" fill="#292826"/>
<path fill-rule="evenodd" clip-rule="evenodd" d="M35.8984 93C51.9147 93 64.8984 80.0163 64.8984 64C64.8984 47.9837 51.9147 35 35.8984 35C19.8822 35 6.89844 47.9837 6.89844 64C6.89844 80.0163 19.8822 93 35.8984 93ZM35.8984 99C55.2284 99 70.8984 83.33 70.8984 64C70.8984 44.67 55.2284 29 35.8984 29C16.5685 29 0.898438 44.67 0.898438 64C0.898438 83.33 16.5685 99 35.8984 99Z" fill="white"/>
<path d="M99.8984 93C99.8984 112.33 84.2284 128 64.8984 128C45.5685 128 29.8984 112.33 29.8984 93C29.8984 73.67 45.5685 58 64.8984 58C84.2284 58 99.8984 73.67 99.8984 93Z" fill="#292826"/>
<path fill-rule="evenodd" clip-rule="evenodd" d="M64.8984 122C80.9147 122 93.8984 109.016 93.8984 93C93.8984 76.9837 80.9147 64 64.8984 64C48.8822 64 35.8984 76.9837 35.8984 93C35.8984 109.016 48.8822 122 64.8984 122ZM64.8984 128C84.2284 128 99.8984 112.33 99.8984 93C99.8984 73.67 84.2284 58 64.8984 58C45.5685 58 29.8984 73.67 29.8984 93C29.8984 112.33 45.5685 128 64.8984 128Z" fill="white"/>
<path d="M128.898 64C128.898 83.33 113.228 99 93.8984 99C74.5685 99 58.8984 83.33 58.8984 64C58.8984 44.67 74.5685 29 93.8984 29C113.228 29 128.898 44.67 128.898 64Z" fill="#292826"/>
<path fill-rule="evenodd" clip-rule="evenodd" d="M93.8984 93C109.915 93 122.898 80.0163 122.898 64C122.898 47.9837 109.915 35 93.8984 35C77.8822 35 64.8984 47.9837 64.8984 64C64.8984 80.0163 77.8822 93 93.8984 93ZM93.8984 99C113.228 99 128.898 83.33 128.898 64C128.898 44.67 113.228 29 93.8984 29C74.5685 29 58.8984 44.67 58.8984 64C58.8984 83.33 74.5685 99 93.8984 99Z" fill="white"/>
<path d="M99.8984 35C99.8984 54.33 84.2284 70 64.8984 70C45.5685 70 29.8984 54.33 29.8984 35C29.8984 15.67 45.5685 0 64.8984 0C84.2284 0 99.8984 15.67 99.8984 35Z" fill="#292826"/>
<path fill-rule="evenodd" clip-rule="evenodd" d="M64.8984 64C80.9147 64 93.8984 51.0163 93.8984 35C93.8984 18.9837 80.9147 6 64.8984 6C48.8822 6 35.8984 18.9837 35.8984 35C35.8984 51.0163 48.8822 64 64.8984 64ZM64.8984 70C84.2284 70 99.8984 54.33 99.8984 35C99.8984 15.67 84.2284 0 64.8984 0C45.5685 0 29.8984 15.67 29.8984 35C29.8984 54.33 45.5685 70 64.8984 70Z" fill="white"/>
<path d="M513.961 40.8868C513.961 39.1659 514.717 37.6537 516.229 36.35C517.742 35.0464 519.358 34.3945 521.079 34.3945C522.852 34.3945 524.416 34.8899 525.772 35.8807C527.18 36.8715 528.093 38.0969 528.51 39.557L544.154 92.6681L562.692 40.5739H562.77C564.074 38.2794 566.368 37.1322 569.653 37.1322C571.166 37.1322 572.574 37.4712 573.877 38.1491C575.181 38.7748 576.093 39.6092 576.615 40.6521V40.7303L594.605 91.4166L609.076 39.6352C609.493 38.2273 610.354 37.0019 611.657 35.9589C612.961 34.916 614.551 34.3945 616.429 34.3945C618.097 34.3945 619.714 35.0203 621.278 36.2718C622.843 37.4712 623.625 38.9834 623.625 40.8085C623.625 41.9558 623.521 42.8683 623.312 43.5462L602.818 115.821C602.453 117.125 601.593 118.35 600.237 119.497C598.934 120.593 597.421 121.14 595.7 121.14C594.084 121.14 592.624 120.697 591.32 119.81C590.069 118.872 589.182 117.777 588.661 116.525L569.732 64.1962L550.489 116.994C549.968 118.402 549.029 119.524 547.674 120.358C546.37 121.244 544.936 121.688 543.372 121.688C541.755 121.688 540.269 121.192 538.913 120.201C537.609 119.211 536.749 117.985 536.332 116.525L514.196 43.6244C514.039 42.8423 513.961 41.9297 513.961 40.8868Z" fill="white"/>
<path d="M467.185 34.4727C473.182 34.4727 478.761 35.6199 483.924 37.9143C489.138 40.2088 493.701 43.3897 497.612 47.4571C501.523 51.5245 504.574 56.1916 506.764 61.4584C509.006 66.7252 510.127 72.331 510.127 78.2756C510.127 84.116 509.006 89.6696 506.764 94.9364C504.521 100.151 501.419 104.766 497.456 108.781C493.545 112.744 488.982 115.873 483.767 118.168C478.605 120.462 473.077 121.609 467.185 121.609C461.344 121.609 455.817 120.488 450.602 118.246C445.44 116.004 440.877 112.901 436.914 108.938C433.003 104.975 429.926 100.386 427.684 95.1711C425.441 89.9043 424.32 84.2725 424.32 78.2756C424.32 72.331 425.441 66.7252 427.684 61.4584C429.926 56.1916 433.003 51.5506 436.914 47.5353C440.877 43.4679 445.44 40.287 450.602 37.9925C455.765 35.646 461.292 34.4727 467.185 34.4727ZM440.121 78.4321C440.121 83.4903 441.346 88.1052 443.797 92.277C446.3 96.3965 449.611 99.6817 453.731 102.133C457.85 104.584 462.361 105.809 467.263 105.809C472.269 105.809 476.806 104.557 480.873 102.054C484.993 99.4992 488.252 96.1358 490.651 91.9641C493.101 87.7924 494.327 83.2296 494.327 78.2756C494.327 73.2174 493.128 68.5764 490.729 64.3526C488.33 60.0765 485.071 56.661 480.951 54.1058C476.884 51.5506 472.295 50.273 467.185 50.273C462.022 50.273 457.407 51.5767 453.34 54.184C449.272 56.7392 446.039 60.1548 443.641 64.4308C441.294 68.6546 440.121 73.3217 440.121 78.4321Z" fill="white"/>
<path d="M404.767 6C407.27 6 409.277 6.83434 410.79 8.50303C412.302 10.1196 413.032 11.8925 412.98 13.822V114.569C412.98 116.655 412.146 118.349 410.477 119.653C408.86 120.905 407.244 121.53 405.627 121.53C403.385 121.53 401.429 120.8 399.761 119.34C398.144 117.88 397.336 116.003 397.336 113.708V13.822C397.336 11.8404 398.04 10.0413 399.448 8.42481C400.908 6.80827 402.681 6 404.767 6Z" fill="white"/>
<path d="M374.259 6C376.762 6 378.77 6.83434 380.282 8.50303C381.794 10.1196 382.524 11.8925 382.472 13.822V114.569C382.472 116.655 381.638 118.349 379.969 119.653C378.352 120.905 376.736 121.53 375.119 121.53C372.877 121.53 370.922 120.8 369.253 119.34C367.636 117.88 366.828 116.003 366.828 113.708V13.822C366.828 11.8404 367.532 10.0413 368.94 8.42481C370.4 6.80827 372.173 6 374.259 6Z" fill="white"/>
<path d="M316.378 34.707C323.313 34.707 329.675 36.4279 335.463 39.8695C341.251 43.3112 345.892 47.9522 349.386 53.7926C352.932 59.5809 354.705 66.0209 354.705 73.1129C354.705 74.573 354.627 76.0591 354.47 77.5714C354.262 79.5008 353.375 81.1434 351.811 82.4992C350.299 83.8029 348.578 84.4547 346.649 84.4547L291.973 84.5329C292.859 88.2875 294.528 91.8073 296.979 95.0926C299.43 98.3778 302.402 101.037 305.896 103.071C309.442 105.105 313.301 106.122 317.473 106.122C321.957 106.122 325.972 105.026 329.518 102.836C333.064 100.646 335.828 98.1171 337.81 95.249C338.435 94.2582 339.374 93.4239 340.626 92.746C341.929 92.0681 343.155 91.7291 344.302 91.7291C346.44 91.7291 348.265 92.5113 349.777 94.0757C351.342 95.6401 352.124 97.4913 352.124 99.6293C352.124 101.298 351.655 102.784 350.716 104.088C347.483 108.833 343.024 112.953 337.34 116.447C331.709 119.888 325.164 121.609 317.707 121.609C311.71 121.609 306.131 120.436 300.968 118.089C295.858 115.743 291.399 112.536 287.593 108.468C283.786 104.401 280.814 99.7336 278.676 94.4668C276.59 89.1479 275.547 83.5421 275.547 77.6496C275.547 71.9656 276.59 66.5685 278.676 61.4581C280.762 56.2956 283.656 51.7068 287.358 47.6915C291.113 43.6762 295.467 40.5214 300.421 38.2269C305.375 35.8803 310.694 34.707 316.378 34.707ZM338.592 68.8108C337.601 63.7004 335.046 59.3462 330.926 55.7481C326.807 52.15 321.957 50.351 316.378 50.351C310.694 50.351 305.661 52.2022 301.281 55.9045C296.953 59.6069 294.033 63.9351 292.521 68.889L338.592 68.8108Z" fill="white"/>
<path d="M186.533 34.3946C191.591 34.3946 196.024 35.6201 199.83 38.0709C203.689 40.5218 206.844 43.4942 209.295 46.988C212.215 43.5985 215.735 40.6522 219.854 38.1492C223.974 35.594 228.563 34.3164 233.621 34.3164C240.296 34.3164 245.823 36.1155 250.204 39.7136C254.636 43.2595 257.921 47.9266 260.059 53.7149C262.197 59.5031 263.266 65.7607 263.266 72.4876L263.345 114.179C263.345 116.264 262.588 118.064 261.076 119.576C259.564 121.088 257.713 121.844 255.523 121.844C253.332 121.844 251.481 121.088 249.969 119.576C248.457 118.064 247.701 116.264 247.701 114.179L247.622 72.644C247.622 68.6809 247.257 64.9785 246.527 61.5368C245.797 58.043 244.468 55.2271 242.538 53.0891C240.609 50.9511 237.819 49.8821 234.169 49.8821C230.31 49.8821 226.998 50.9511 224.235 53.0891C221.523 55.2271 219.437 58.043 217.977 61.5368C216.569 64.9785 215.865 68.707 215.865 72.7222L215.943 114.413C215.943 116.499 215.161 118.298 213.597 119.81C212.085 121.271 210.259 122.001 208.121 122.001C205.931 122.001 204.08 121.244 202.568 119.732C201.056 118.22 200.3 116.421 200.3 114.335V72.8005C200.3 67.8987 199.465 63.7531 197.796 60.3635C196.18 56.974 194.068 54.4188 191.461 52.698C188.906 50.925 186.272 50.0385 183.561 50.0385C179.702 50.0385 176.234 51.8376 173.157 55.4357C170.081 59.0338 168.542 64.6395 168.542 72.2529V114.413C168.542 116.499 167.76 118.298 166.196 119.81C164.684 121.271 162.858 122.001 160.72 122.001C158.582 122.001 156.731 121.244 155.167 119.732C153.655 118.22 152.898 116.421 152.898 114.335V41.9819C152.898 39.8439 153.29 38.0449 154.072 36.5848C154.906 35.0725 156.418 34.3164 158.608 34.3164C160.329 34.3164 161.92 34.8639 163.38 35.959C164.84 37.0541 166.013 38.8792 166.9 41.4344L168.386 45.7365C170.055 42.2948 172.61 39.5571 176.051 37.5234C179.545 35.4376 183.039 34.3946 186.533 34.3946Z" fill="white"/>
</svg>
